<svg xmlns="http://www.w3.org/2000/svg" width="144" height="142" viewBox="0 0 144 142"><g><g><path fill="#fff" d="M82.449 104.842v27.562c0 5.28-4.316 9.588-9.586 9.588H9.573c-5.28 0-9.587-4.308-9.587-9.588V9.594c0-5.28 4.307-9.587 9.586-9.587h63.29c5.271 0 9.591 4.306 9.591 9.587V36.1h-6.67v-20.89H6.648v109.047h69.133v-19.416zM29.935 8.08c0 .632.514 1.16 1.153 1.16h20.251c.638 0 1.157-.528 1.157-1.16 0-.64-.519-1.152-1.157-1.152H31.088c-.639 0-1.153.511-1.153 1.152zm16.08 124.324a4.798 4.798 0 1 0-4.801 4.802 4.805 4.805 0 0 0 4.8-4.802zm61.1-33.427H38.527l-12.62-56.685h77.167l-2.092 8.124H36.025l9.014 40.447h55.565L114.56 27.64h29.455v8.115h-22.94zM61.258 109.75c0 4.185-3.397 7.579-7.569 7.579a7.579 7.579 0 0 1-7.577-7.579c0-4.176 3.393-7.57 7.577-7.57 4.18.005 7.569 3.394 7.569 7.57zm39.596 0a7.579 7.579 0 0 1-7.576 7.579c-4.176 0-7.569-3.394-7.569-7.579 0-4.176 3.393-7.57 7.569-7.57 4.183.005 7.576 3.394 7.576 7.57z"/></g></g></svg>