<svg xmlns="http://www.w3.org/2000/svg" width="634" height="83" viewBox="0 0 634 83">
  <defs>
    <style>
      .cls-1 {
        fill: #ffa200;
        fill-rule: evenodd;
      }
    </style>
  </defs>
  <path id="food_icon" data-name="food icon" class="cls-1" d="M562.722,6h18.954c-0.165.721,0.339,2.11-.267,2.393-2.127.159-3.165-.55-3.737,0.8-0.985,2.318,1.834,2,4,2.393,26.906,4.83,41.086,27.7,41.645,57.423,2.112,0.337,4.248-.969,4,1.329-0.188,1.769-3.983,1.064-7.208,1.064h-8.276c0.588,2.073,1.434,3.889,1.6,6.38,1.25,0.474,4.576-1.1,4.805,1.063,0.209,1.971-3.447,1.329-4.538,1.329H529.887c-1.663,0-5.23.568-4.539-1.595,0.523-1.637,2.859-.43,5.072-0.8a12.854,12.854,0,0,1-.266-6.38h-7.475c-3.192,0-6.634.811-6.407-1.329,0.21-1.985,2.072-.705,4.271-1.063,1.021-30.939,14.2-51.22,39.777-56.892,2.295-.509,7.428.235,7.207-3.19-0.5-1.365-3.874.137-4.805-.8V6Zm6.941,4.785h5.873V8.393h-5.873v2.393Zm39.509,19.939a44.752,44.752,0,0,0-33.1-17.546c-19.409-1.2-33.578,6.753-41.645,17.281-7.474,9.753-11.236,22.324-11.479,38.548h98.24C621.026,53.268,616.76,40.479,609.172,30.724ZM532.289,72.2c-0.762,1.908.149,3.98,0.534,5.583,18.064-.177,36.839.354,54.459-0.266a10.582,10.582,0,0,0-.534-6.115H532.823A0.725,0.725,0,0,0,532.289,72.2Zm57.129,5.583h21.623a11.144,11.144,0,0,0-2.135-6.38H589.151A12.865,12.865,0,0,1,589.418,77.78ZM569.93,23.015a0.41,0.41,0,0,1,.534.266c3.937,3.034,6.595,6.552,7.208,11.7,1.148,9.651-6.185,17.057-2.937,26.85a34.122,34.122,0,0,1-6.941-12.495C565.333,40.633,575.947,31.661,569.93,23.015ZM571.8,52.258c1.288-6.064,6-13.852,2.135-20.2C572.746,38.537,567.029,46.124,571.8,52.258ZM545.37,33.915c-5.482,4.377-9.174,10.537-11.746,17.812-0.849-.041-1.175-0.6-2.136-0.532,2.159-8.218,6.82-13.945,12.013-19.141A2.662,2.662,0,0,1,545.37,33.915Zm28.564-1.861c3.866,6.352-.847,14.14-2.135,20.2M555.247,33.383c3,1.213,5.219,5.536,5.607,8.507,0.879,6.744-4.2,12.551-2.136,19.939-2.214-2.892-4.956-6.077-5.339-10.1C552.8,45.675,559.3,39.252,555.247,33.383Zm1.335,19.407c0.624-3.121,2.929-7.034,1.6-10.368C557.574,45.449,554.406,49.577,556.582,52.79Zm29.632-19.407c2.9,1.353,5.239,5.889,5.607,9.039,0.758,6.5-4.509,12.076-2.4,19.141-2.343-2.949-4.558-5.618-5.072-9.3C583.408,45.536,590.048,39.785,586.214,33.383Zm1.068,19.407c0.919-2.986,2.88-6.347,1.869-10.368C588.163,45.382,585.561,49.611,587.282,52.79ZM634,82.565v2.393H513.068c-1.437-.075-3.627.6-2.936-1.595,0.265-1.481,2.151-.763,2.936-0.8,1.286-.056,2.754,0,4,0H634Z"/>
  <path id="chef_icon" data-name="chef icon" class="cls-1" d="M420.043,7h4.13c5.813,1.139,10.044,3.855,12.61,8.228,9.606-6.1,24.957-1.195,25.218,10.61v1.949c0.151,11.572-11.606,11.3-18.044,16.24-4.192,3.217-3.875,10.152-4.131,18.189-7.692,4.928-27.737,4.9-35.436,0-0.805-6.81.905-14.109-3.044-17.539-2.109-1.832-5.9-2.33-8.7-3.681C387.77,38.637,383.4,35.563,382,29.518V25.836c1.573-8.536,8.331-14.235,17.827-13.209,3.1,0.336,4.891,1.741,7.392,2.815A18.369,18.369,0,0,1,420.043,7Zm0.217,1.949a15.631,15.631,0,0,0-12.609,21c0.243,0.663,3.23,4.447,1.739,5.2-1.159.583-2.5-2.436-3.044-3.681-1.7-3.9-2.131-10.495,0-14.074-8.91-6.908-21.478-.508-22.392,8.878-0.806,8.273,6.133,11.422,11.305,13.642,2.109,0.9,4.87,1.533,6.739,2.815,4.44,3.044,4.207,11.429,4.131,18.622,8.294,3.429,23.658,3.4,31.958,0-0.055-6.142-.183-13.217,2.609-16.89,5.57-7.33,20.062-4.731,19.348-18.405-0.56-10.74-14.673-14.986-23.914-8.228C433.007,12.369,428.127,8.07,420.26,8.947ZM442.652,38.4c-4.635,1.374-7.733,4.279-7.609,10.394-0.68-.044-1.6.146-1.956-0.217,0.072-6.929,3.52-10.5,9.131-11.909C442.077,37.525,442.793,37.534,442.652,38.4ZM414.608,57.884c-0.045.678,0.146,1.59-.218,1.949-2-.178-3.655-0.69-5.652-0.866C408.441,55.293,412.318,58.361,414.608,57.884Zm21.087-.866c0.037,0.614.4,0.9,0.435,1.516a16.057,16.057,0,0,1-5.217,1.082c0.047-.7-0.385-0.916-0.218-1.732A42.448,42.448,0,0,1,435.7,57.017Zm-16.522,1.3h7.174v1.949h-7.174V58.317ZM431.13,83h-3.913a12.214,12.214,0,0,1-5.435-2.382c-6.179,4.989-17.765.324-20.653-3.9,7.069,2.757,11.411-3.311,16.957-3.248,1.263,0.014,2.68,1.093,4.131,1.083a20.08,20.08,0,0,0,2.391-.65c6.8-1.092,10.8,5.748,18.7,2.815C440.32,79.885,436.134,81.85,431.13,83ZM422,76.722c-4.923-3.3-9.576,1.405-14.131,2.382,3.169,1.506,7.11,2.877,10.87,1.3,1.01-.424,2.1-2.008,3.261-1.949,0.951,0.049,1.968,1.557,2.826,1.949,3.777,1.723,8.339.427,11.523-1.3C431.4,78.3,427.17,73.469,422,76.722Z"/>
  <path id="clock_icon" data-name="clock icon" class="cls-1" d="M248.554,9H262.92c1.476,1.029,1.4,6.385.244,7.739-4.422.27-11.071,0.684-15.1-.242C247.75,14.4,247.38,10.392,248.554,9Zm1.46,2.177V14.8H261.7V11.174H250.014Zm21.185,5.8c2.6,0.88,4.5,2.466,6.818,3.628-0.053.914-.765,1.174-0.974,1.935-2.292-1.029-3.96-2.677-6.574-3.386C270.338,18.057,270.958,17.706,271.2,16.978ZM240.518,19.4c-2.369.792-4,2.318-6.088,3.386-0.712-.1-0.79-0.827-1.217-1.209,1.567-1.99,4-3.122,6.574-4.111C240,18.142,240.574,18.454,240.518,19.4ZM288,48.66v5.321c-2.379,16.1-11.709,25.293-26.542,29.022H250.014c-1.489-.391-3.5-1.028-5.357-1.693-1.8-.644-3.67-1.849-5.113-1.935-1.068-.064-1.945.554-2.922,0.725-16.859,2.963-31.079-9.2-32.143-23.943-1.139-15.8,8.382-25.232,19.481-28.3a5.431,5.431,0,0,0,.486,1.451c-9.807,4.041-18.266,11.73-18.019,24.427,0.314,16.105,13.279,26.348,30.438,23.944-1.456-1.194-2.159-2.692-3.9-3.144-2-.52-4.279.112-6.087-0.242a20.632,20.632,0,0,1-16.315-16.2,21.5,21.5,0,0,1,5.6-19.106c2.445-2.428,5.581-4.573,9.5-4.837,0.678,2.313-2.335,2.038,0,3.87,1.352-.463,1.591-2.123,2.191-3.144a32.324,32.324,0,0,1,29.952-15.721C275.321,20.421,285.324,32.313,288,48.66ZM245.875,22.782a30.24,30.24,0,0,0-19.968,22.976c-3.888,22.518,15.772,37.372,33.6,35.31a29.942,29.942,0,0,0-6.818-59.495A34.012,34.012,0,0,0,245.875,22.782ZM222.011,37.293c-0.883.977-2.535,1.19-2.922,2.66,1.8,1.2,3.057,2.93,5.114,3.87a27.545,27.545,0,0,1,.974-3.144C224.156,39.517,223.438,38.053,222.011,37.293ZM216.9,41.4a32.853,32.853,0,0,0-2.922,4.837,83.5,83.5,0,0,0,9.5,2.66c-0.192-1,.373-1.241.243-2.176C221.5,44.894,219.712,42.64,216.9,41.4Zm-4.383,11.367c3.75,0.076,8.352.834,10.958-.484-0.338-1.737-2.8-1.985-4.384-2.419-1.815-.5-3.869-0.861-5.6-1.209-0.014-.147-0.037-0.286-0.244-0.242A11.5,11.5,0,0,0,212.515,52.772Zm0.243,2.419c-0.53,1.338.22,3.486,0.731,4.6,1.744-.415,3.962-0.89,5.844-1.451,1.63-.486,4.468-0.734,4.383-2.9C220.632,54.692,216.593,54.988,212.758,55.19Zm1.7,6.771c0.514,1.827,1.807,2.881,2.678,4.353,2.736-1.878,5.545-3.684,7.549-6.288-0.361-.045-0.223-0.584-0.244-0.967A103.523,103.523,0,0,0,214.463,61.962Zm11.2,0.967c-1.607.639-6.594,4.759-6.575,5.079,0.06,0.989,3.946,2.479,4.627,2.66C224.253,67.852,227.26,65.724,225.664,62.929Zm0,8.707c1.476,0.392,3.856,1.164,5.6.484-1.727-1.107-2.155-3.5-3.9-4.6C226.975,69.069,226.044,70.079,225.664,71.636Zm31.412-47.645c-0.14,1.876.294,4.323-.243,5.8h-1.949C254.6,27.933,253.593,22.113,257.076,23.991ZM249.284,28.1c1.059-.165.39,1.386,0.974,1.693-7.448,2.6-12.78,7.3-15.584,14.511a3.792,3.792,0,0,1-1.948-.484A24.125,24.125,0,0,1,249.284,28.1Zm30.194,16.2c-0.682.129-1.265,0.355-1.948,0.484-2.634-6.654-6.9-11.687-13.879-14.027a3.8,3.8,0,0,1,.73-2.177C271.8,31.456,277.02,36.51,279.478,44.307Zm-9.253-3.628c-2.94,3.287-7.3,5.167-10.227,8.465,0.55,1.629,2.438.734,3.653,0.725a71.091,71.091,0,0,1,10.227.484V51.8a76.747,76.747,0,0,1-12.906.242c-1.293,3.64-5.974,5.876-9.01,2.661-3.772-3.995,1.485-10.785,6.331-7.5,3.721-2.512,7.117-5.347,10.715-7.981C269.657,39.47,269.811,40.2,270.225,40.679Zm-13.88,13.3c2.891-.541,2.794-6.654-1.7-5.079C251.223,50.1,253.53,54.508,256.345,53.981ZM185,43.339h8.279c2.908,0,8.8-1.065,7.792,1.935-4.4,1.116-10.867.171-16.071,0.484V43.339Zm0,9.432h7.061c2.879,0,7.526-.961,6.575,1.935-3.588,1.111-9.241.174-13.636,0.484V52.772Zm48.7,4.111c1.872,3.482,3.038,6.946,5.6,9.674a31.557,31.557,0,0,0,9.01,6.288c0.16,0.885-.527.928-0.487,1.693a22.768,22.768,0,0,1-15.584-17.413C232.983,57.3,232.955,56.707,233.7,56.883Zm45.778,1.935c-2.459,7.876-7.534,13.155-15.34,15.72a5.477,5.477,0,0,0-.487-1.451c6.244-3.31,11.617-7.487,13.879-14.752C278.407,58.269,278.7,58.781,279.478,58.818ZM185,62.2c5.276,0.161,11.2-.322,16.071.242v2.177H185V62.2Zm72.077,9.674c-0.14,1.876.294,4.323-.243,5.8h-1.949C254.6,75.819,253.593,70,257.076,71.878Z"/>
  <path id="bag_icon" data-name="bag icon" class="cls-1" d="M76.983,27.074c-1.913-.024-3.86-1.425-5.562-2.442s-3.6-2.054-4.672-3.551a1.747,1.747,0,0,1,.222-0.666c1.663-.7,4.034,1.707,6.008,2.885C74.741,24.353,77.758,25,76.983,27.074Zm-2.225,3.773c-1.828,1.429-3.926-1-5.562-2-1.819-1.114-4.522-1.826-5.117-3.773a1.123,1.123,0,0,0,.667-0.666C68.482,26.158,72.33,27.794,74.758,30.847Zm-2.67,4.439c-1.448.963-3.46-.731-5.563-2-1.64-.987-5.985-2.8-4.45-4.661h0.445a32.71,32.71,0,0,1,5.117,3.107C69.17,32.68,71.685,33.108,72.088,35.286ZM29.146,53.706v1.775a161.475,161.475,0,0,1-18.912,0c0.1-.718-0.293-1.919.445-2C16.762,53.63,23.432,53.191,29.146,53.706Zm-2.67,9.987a3.687,3.687,0,0,1,3.782,4.883c-1.4,4.409-10.484,1.342-6.452-3.773A3.575,3.575,0,0,1,26.476,63.693Zm-1.113,4.661a1.746,1.746,0,0,0,2.67-2.219A1.746,1.746,0,0,0,25.363,68.354Zm18.467-4.661c4.752-.408,5.123,7.544,0,7.324C39.074,70.813,39.436,64.07,43.831,63.693Zm-1.112,4.661a1.746,1.746,0,0,0,2.67-2.219A1.746,1.746,0,0,0,42.718,68.354Zm17.8-4.439c3.375-1.019,5,1.026,4.9,3.551-0.183,4.275-7.6,5.029-7.342-.444A3.238,3.238,0,0,1,60.518,63.915ZM60.073,67.91a0.606,0.606,0,0,1,.445.666C66.829,69.84,60.52,61.906,60.073,67.91Zm-24.7,2.441c4.129-.2,5.329,7.153.223,7.324C31.356,77.817,29.819,70.621,35.376,70.351Zm-1.335,4.661a1.746,1.746,0,0,0,2.67-2.219A1.746,1.746,0,0,0,34.041,75.012Zm17.8-4.439a4.263,4.263,0,0,1,2.447-.222c2.2,0.554,4.017,6.082,0,7.1C50.125,78.51,47.085,72.009,51.841,70.573Zm-0.445,4a0.606,0.606,0,0,1,.445.666,3.449,3.449,0,0,0,2.447,0,2.353,2.353,0,0,0,0-2.663C52.748,71.93,50.987,72.569,51.4,74.568ZM30.036,83a11.955,11.955,0,0,1,5.118,0H30.036Zm42.275,0H35.153a11.955,11.955,0,0,0-5.118,0H14.461c-3.46-.94-3.021-7.137-3.782-12.207-0.583-3.881-1.166-7.5-1.78-9.987-6.381,1.835-6.2-3.752-7.12-9.1C1.007,47.248.763,43.338,0,41.056V39.724c0.223-1.553,2.368-1.189,3.783-1.553,0.012-10.187,6.746-17.337,15.8-17.976,10.566-.747,18.046,6.958,18.913,17.976,0.786-4.23.445-12.548,0.445-18.864,0-2.1-.962-6.651,1.78-5.77,1.034,7.328.151,16.568,0.445,24.635h5.118V19.084c0-1.99-.941-6.438,1.78-5.548,1.32,7.068-.43,17.337.89,24.635,1.749,0.027,2.018-2,2.67-3.107,4.611-7.842,9.8-16.58,14.908-24.413,0.969-.274,1.979,1.439,2.225.444,1.474-3.413,1.7-8.072,3.56-11.1h1.335V0.22c2.22,0.951,5.662.339,6.23,2.441,0.562,2.079-2.13,4.567-1.558,6.88,1.191-1.1,2.271-2.026,3.783-3.329,1-.863,2.6-2.969,4-2.885C87.076,3.385,91.079,7.57,91,9.1c-0.122,2.388-3.072,2.112-3.782,4.217,0.639,1.212,2.02,1.683,2.225,3.329-0.982,1.758-2.753,2.728-4.228,4,0,0.969.761,1.31,0.223,2.219-2.951,5.121-6.1,10.041-8.9,15.313,3.135,0.35,7.877-.9,9.345,1.11,0.294,2.972-.615,6.546-1.335,11.1-0.778,4.918-.434,12.347-6.9,10.653-0.506,4.412-1.463,10.022-2.225,15.092C74.921,79.477,75.262,82.4,72.311,83ZM70.753,12.648c3.994,2.452,8.03,4.863,12.237,7.1A13.323,13.323,0,0,0,87,16.2c-3.62-2.169-.91-5.83,1.78-7.1a8.843,8.843,0,0,0-3.115-3.329c-2.268.827-5.03,6.21-7.788,5.992-3.5-.277-0.632-5.883-0.222-8.433a40.889,40.889,0,0,0-4.227-1.11A89.518,89.518,0,0,0,70.753,12.648Zm-3.783.444c-4.544,8.562-10.495,16.9-14.462,25.3,7.8-.517,14.517.061,21.36-0.222q4.913-7.638,9.345-15.757C77.841,19.264,72.675,15.91,66.971,13.092ZM21.8,22.192c-9.263-.481-15.96,6.217-16.02,15.979,3.572,0.413,7.5.047,11.57,0a4.128,4.128,0,0,1,5.34-3.773c1.789,0.447,2.2,2.548,3.115,3.773,3.591-.233,6.962.619,10.235,0C35.872,29.024,30.411,22.638,21.8,22.192ZM19.356,38.171a13.931,13.931,0,0,0,4.005,0C23.6,35.826,19.1,35.74,19.356,38.171ZM2,40.612c1.172,5.933,1.988,12.221,3.115,18.2,23.517,0.273,51.546-.069,75.872,0C82.2,52.842,83.053,46.519,84.1,40.39c-12.41-.283-23.326.059-35.6,0-0.623,2.19,1.556,7.175-1.78,6.658-0.99-1.379-.183-4.552-0.445-6.658H41.161c-0.623,2.19,1.556,7.175-1.78,6.658C38.39,45.669,39.2,42.5,38.936,40.39,25.84,40.512,12.979,39.817,2,40.612ZM11.123,61.03c1.141,6.482,1.824,13.42,3.115,19.752,17.667,0.172,39.2-.043,58.295,0C73.92,74.545,74.6,67.608,75.648,61.03,54.8,61.111,31.116,60.783,11.123,61.03Z"/>
</svg>
