<svg xmlns="http://www.w3.org/2000/svg" width="18" height="20" viewBox="0 0 18 20"><g><g><path fill="#fff" d="M16.982 5.795h-2.938c-.803 0-2.783.336-2.53-.704.115-.473 1.052-.352 1.674-.352h2.009c-1.341-1.737-3.318-3.164-6.175-3.17-2.77-.005-4.68 1.331-5.915 2.74A8.627 8.627 0 0 0 1.06 8.848c-.083.644.112 1.647-.521 1.682-.972.055-.362-2.483-.223-3.013.764-2.909 2.678-5.072 5.096-6.182 4.092-1.878 8.69-.044 10.602 2.7V1.961c0-.823-.179-1.886.41-1.957.7-.084.557.82.557 1.566v4.225zM1.991 15.97v2.309c0 .738.165 1.755-.52 1.721-.713-.034-.447-1.836-.447-2.66v-3.13h2.938c.772 0 2.41-.242 2.53.39.156.822-.834.666-1.525.666H2.809c1.687 2.539 5.365 3.907 8.742 2.7 1.712-.612 2.697-1.417 3.646-2.622.923-1.171 1.657-2.784 1.785-4.539.041-.558-.09-1.243.41-1.33.863-.152.585 1.214.483 1.917-.534 3.685-2.701 6.205-5.505 7.396-4.21 1.786-8.448-.19-10.38-2.818z"/></g></g></svg>