<svg xmlns="http://www.w3.org/2000/svg" width="29" height="22" viewBox="0 0 29 22"><g><g><path fill="#fff" d="M20.566 0h.285c.452.088 1.014.134 1.196.623.176.471.227 1.57-.057 2.04-.434.717-1.536.368-2.393.283.792 2.515 1.854 4.548 3.134 6.514.605.929 1.493 1.57 1.482 2.945 2.382.22 4.345.854 4.787 3.002-.148.172-.512.108-.74.057 1.745 2.833-.378 6.253-3.192 6.514-2.217.205-4.15-1.271-4.56-3.229-1.11.232-1.47-.711-1.367-1.869-2.482.672-6.14.875-9.346.566.157 3.015-2.362 4.775-4.73 4.532-2.621-.27-4.762-3.335-3.305-6.288-.683-.397-1.436-.704-1.653-1.529-.406-1.542.438-3.599.912-4.645 1.838.518 5.179.722 7.408.227.613-.136 1.755-.635 2.109-.17.22.288-.016.91-.114 1.416-.468 2.417.327 3.414 2.564 3.512 2.746.12 4.664-.521 5.528-2.152 1.602-3.025.003-6.736-.684-9.46-.448.17-.96.573-1.595.906-.528.278-1.665.634-1.653-.283.008-.621 1.01-.854 1.539-1.076a71.021 71.021 0 0 0 1.823-.793C18.164.445 19.294.153 20.566 0zm1.595 18.183c.166 1.147 1.296 2.054 2.508 2.039 1.46-.018 2.48-1.29 2.45-2.549-.022-.928-.609-2.04-1.481-2.096-.49-.031-.826.299-1.368.34.012.567 1.195 1.03 1.197 1.813 0 .506-.37.88-.912.85-.987-.056-1.22-1.494-1.995-1.927-.487.362-.467 1.06-.399 1.53zM3.47 16.37a2.495 2.495 0 0 0 2.109 3.851c1.41-.018 2.623-1.088 2.393-2.946-.237-.066-.536-.07-.798-.113-.62.388-.776 1.483-1.71 1.416-.504-.035-.787-.506-.74-.962.037-.368.457-.55.399-.794-.512-.19-1.128-.276-1.653-.452zm7.523-8.554c-1.229.82-3.268.85-5.471.85-.966 0-2.054.002-3.02-.113-.65-.079-2.166-.28-2.28-.85C.104 7.12.75 6.637 1.304 6.57c1.515-.181 3.396 0 5.47 0 1.764 0 4.37-.44 4.218 1.246z"/></g></g></svg>